<svg xmlns="http://www.w3.org/2000/svg" width="400" height="400"><rect rx="15" width="100%" height="100%" fill="#493118"/><g transform="translate(200, 200)"><g transform="translate(0, 0) rotate(45)" stroke="brown" stroke-width="0.5"><path transform="rotate(0)" d="M0 0 Q30.000000000000004 29.999999999999993 3.67394039744206e-15 60 Q-29.999999999999996 30.000000000000004 0 0Z" fill="#e4d5b7"/><circle cx="2.9391523179536483e-15" cy="48" r="3.4285714285714284" fill="#493118"/><path transform="rotate(90)" d="M0 0 Q30.000000000000004 29.999999999999993 3.67394039744206e-15 60 Q-29.999999999999996 30.000000000000004 0 0Z" fill="#e4d5b7"/><circle cx="-48" cy="5.8783046359072966e-15" r="3.4285714285714284" fill="#493118"/><path transform="rotate(180)" d="M0 0 Q30.000000000000004 29.999999999999993 3.67394039744206e-15 60 Q-29.999999999999996 30.000000000000004 0 0Z" fill="#e4d5b7"/><circle cx="-8.817456953860943e-15" cy="-48" r="3.4285714285714284" fill="#493118"/><path transform="rotate(270)" d="M0 0 Q30.000000000000004 29.999999999999993 3.67394039744206e-15 60 Q-29.999999999999996 30.000000000000004 0 0Z" fill="#e4d5b7"/><circle cx="48" cy="-1.1756609271814593e-14" r="3.4285714285714284" fill="#493118"/></g><g transform="translate(0, -66.92130429902463) rotate(30)" stroke="brown" stroke-width="0.5"><path transform="rotate(0)" d="M0 0 Q12.247448713915897 21.213203435596423 -24.494897427831773 42.42640687119286 Q-24.494897427831788 7.105427357601002e-15 0 0Z" fill="#e4d5b7"/><circle cx="-19.59591794226542" cy="33.94112549695429" r="2.7994168488950613" fill="#493118"/><path transform="rotate(120)" d="M0 0 Q12.247448713915897 21.213203435596423 -24.494897427831773 42.42640687119286 Q-24.494897427831788 7.105427357601002e-15 0 0Z" fill="#e4d5b7"/><circle cx="-19.595917942265444" cy="-33.94112549695428" r="2.7994168488950613" fill="#493118"/><path transform="rotate(240)" d="M0 0 Q12.247448713915897 21.213203435596423 -24.494897427831773 42.42640687119286 Q-24.494897427831788 7.105427357601002e-15 0 0Z" fill="#e4d5b7"/><circle cx="39.19183588453086" cy="-9.599231273739819e-15" r="2.7994168488950613" fill="#493118"/></g><g transform="translate(66.92130429902463, 0) rotate(120)" stroke="brown" stroke-width="0.5"><path transform="rotate(0)" d="M0 0 Q12.247448713915897 21.213203435596423 -24.494897427831773 42.42640687119286 Q-24.494897427831788 7.105427357601002e-15 0 0Z" fill="#e4d5b7"/><circle cx="-19.59591794226542" cy="33.94112549695429" r="2.7994168488950613" fill="#493118"/><path transform="rotate(120)" d="M0 0 Q12.247448713915897 21.213203435596423 -24.494897427831773 42.42640687119286 Q-24.494897427831788 7.105427357601002e-15 0 0Z" fill="#e4d5b7"/><circle cx="-19.595917942265444" cy="-33.94112549695428" r="2.7994168488950613" fill="#493118"/><path transform="rotate(240)" d="M0 0 Q12.247448713915897 21.213203435596423 -24.494897427831773 42.42640687119286 Q-24.494897427831788 7.105427357601002e-15 0 0Z" fill="#e4d5b7"/><circle cx="39.19183588453086" cy="-9.599231273739819e-15" r="2.7994168488950613" fill="#493118"/></g><g transform="translate(-66.92130429902463, 0) rotate(-60)" stroke="brown" stroke-width="0.5"><path transform="rotate(0)" d="M0 0 Q12.247448713915897 21.213203435596423 -24.494897427831773 42.42640687119286 Q-24.494897427831788 7.105427357601002e-15 0 0Z" fill="#e4d5b7"/><circle cx="-19.59591794226542" cy="33.94112549695429" r="2.7994168488950613" fill="#493118"/><path transform="rotate(120)" d="M0 0 Q12.247448713915897 21.213203435596423 -24.494897427831773 42.42640687119286 Q-24.494897427831788 7.105427357601002e-15 0 0Z" fill="#e4d5b7"/><circle cx="-19.595917942265444" cy="-33.94112549695428" r="2.7994168488950613" fill="#493118"/><path transform="rotate(240)" d="M0 0 Q12.247448713915897 21.213203435596423 -24.494897427831773 42.42640687119286 Q-24.494897427831788 7.105427357601002e-15 0 0Z" fill="#e4d5b7"/><circle cx="39.19183588453086" cy="-9.599231273739819e-15" r="2.7994168488950613" fill="#493118"/></g><g transform="translate(0, 66.92130429902463) rotate(-30)" stroke="brown" stroke-width="0.5"><path transform="rotate(0)" d="M0 0 Q12.247448713915897 21.213203435596423 -24.494897427831773 42.42640687119286 Q-24.494897427831788 7.105427357601002e-15 0 0Z" fill="#e4d5b7"/><circle cx="-19.59591794226542" cy="33.94112549695429" r="2.7994168488950613" fill="#493118"/><path transform="rotate(120)" d="M0 0 Q12.247448713915897 21.213203435596423 -24.494897427831773 42.42640687119286 Q-24.494897427831788 7.105427357601002e-15 0 0Z" fill="#e4d5b7"/><circle cx="-19.595917942265444" cy="-33.94112549695428" r="2.7994168488950613" fill="#493118"/><path transform="rotate(240)" d="M0 0 Q12.247448713915897 21.213203435596423 -24.494897427831773 42.42640687119286 Q-24.494897427831788 7.105427357601002e-15 0 0Z" fill="#e4d5b7"/><circle cx="39.19183588453086" cy="-9.599231273739819e-15" r="2.7994168488950613" fill="#493118"/></g><g transform="translate(-57.9555495773441, -100.38195644853695) rotate(-15)" stroke="brown" stroke-width="0.5"><path transform="rotate(0)" d="M0 0 Q30.000000000000004 29.999999999999993 3.67394039744206e-15 60 Q-29.999999999999996 30.000000000000004 0 0Z" fill="#e4d5b7"/><circle cx="2.9391523179536483e-15" cy="48" r="3.4285714285714284" fill="#493118"/><path transform="rotate(90)" d="M0 0 Q30.000000000000004 29.999999999999993 3.67394039744206e-15 60 Q-29.999999999999996 30.000000000000004 0 0Z" fill="#e4d5b7"/><circle cx="-48" cy="5.8783046359072966e-15" r="3.4285714285714284" fill="#493118"/><path transform="rotate(180)" d="M0 0 Q30.000000000000004 29.999999999999993 3.67394039744206e-15 60 Q-29.999999999999996 30.000000000000004 0 0Z" fill="#e4d5b7"/><circle cx="-8.817456953860943e-15" cy="-48" r="3.4285714285714284" fill="#493118"/><path transform="rotate(270)" d="M0 0 Q30.000000000000004 29.999999999999993 3.67394039744206e-15 60 Q-29.999999999999996 30.000000000000004 0 0Z" fill="#e4d5b7"/><circle cx="48" cy="-1.1756609271814593e-14" r="3.4285714285714284" fill="#493118"/></g><g transform="translate(100.38195644853695, -57.9555495773441) rotate(-15)" stroke="brown" stroke-width="0.5"><path transform="rotate(0)" d="M0 0 Q30.000000000000004 29.999999999999993 3.67394039744206e-15 60 Q-29.999999999999996 30.000000000000004 0 0Z" fill="#e4d5b7"/><circle cx="2.9391523179536483e-15" cy="48" r="3.4285714285714284" fill="#493118"/><path transform="rotate(90)" d="M0 0 Q30.000000000000004 29.999999999999993 3.67394039744206e-15 60 Q-29.999999999999996 30.000000000000004 0 0Z" fill="#e4d5b7"/><circle cx="-48" cy="5.8783046359072966e-15" r="3.4285714285714284" fill="#493118"/><path transform="rotate(180)" d="M0 0 Q30.000000000000004 29.999999999999993 3.67394039744206e-15 60 Q-29.999999999999996 30.000000000000004 0 0Z" fill="#e4d5b7"/><circle cx="-8.817456953860943e-15" cy="-48" r="3.4285714285714284" fill="#493118"/><path transform="rotate(270)" d="M0 0 Q30.000000000000004 29.999999999999993 3.67394039744206e-15 60 Q-29.999999999999996 30.000000000000004 0 0Z" fill="#e4d5b7"/><circle cx="48" cy="-1.1756609271814593e-14" r="3.4285714285714284" fill="#493118"/></g><g transform="translate(57.9555495773441, 100.38195644853695) rotate(-15)" stroke="brown" stroke-width="0.5"><path transform="rotate(0)" d="M0 0 Q30.000000000000004 29.999999999999993 3.67394039744206e-15 60 Q-29.999999999999996 30.000000000000004 0 0Z" fill="#e4d5b7"/><circle cx="2.9391523179536483e-15" cy="48" r="3.4285714285714284" fill="#493118"/><path transform="rotate(90)" d="M0 0 Q30.000000000000004 29.999999999999993 3.67394039744206e-15 60 Q-29.999999999999996 30.000000000000004 0 0Z" fill="#e4d5b7"/><circle cx="-48" cy="5.8783046359072966e-15" r="3.4285714285714284" fill="#493118"/><path transform="rotate(180)" d="M0 0 Q30.000000000000004 29.999999999999993 3.67394039744206e-15 60 Q-29.999999999999996 30.000000000000004 0 0Z" fill="#e4d5b7"/><circle cx="-8.817456953860943e-15" cy="-48" r="3.4285714285714284" fill="#493118"/><path transform="rotate(270)" d="M0 0 Q30.000000000000004 29.999999999999993 3.67394039744206e-15 60 Q-29.999999999999996 30.000000000000004 0 0Z" fill="#e4d5b7"/><circle cx="48" cy="-1.1756609271814593e-14" r="3.4285714285714284" fill="#493118"/></g><g transform="translate(-100.38195644853695, 57.9555495773441) rotate(-15)" stroke="brown" stroke-width="0.5"><path transform="rotate(0)" d="M0 0 Q30.000000000000004 29.999999999999993 3.67394039744206e-15 60 Q-29.999999999999996 30.000000000000004 0 0Z" fill="#e4d5b7"/><circle cx="2.9391523179536483e-15" cy="48" r="3.4285714285714284" fill="#493118"/><path transform="rotate(90)" d="M0 0 Q30.000000000000004 29.999999999999993 3.67394039744206e-15 60 Q-29.999999999999996 30.000000000000004 0 0Z" fill="#e4d5b7"/><circle cx="-48" cy="5.8783046359072966e-15" r="3.4285714285714284" fill="#493118"/><path transform="rotate(180)" d="M0 0 Q30.000000000000004 29.999999999999993 3.67394039744206e-15 60 Q-29.999999999999996 30.000000000000004 0 0Z" fill="#e4d5b7"/><circle cx="-8.817456953860943e-15" cy="-48" r="3.4285714285714284" fill="#493118"/><path transform="rotate(270)" d="M0 0 Q30.000000000000004 29.999999999999993 3.67394039744206e-15 60 Q-29.999999999999996 30.000000000000004 0 0Z" fill="#e4d5b7"/><circle cx="48" cy="-1.1756609271814593e-14" r="3.4285714285714284" fill="#493118"/></g><g transform="translate(42.42640687119285, -91.41620172685641) rotate(-30)" stroke="brown" stroke-width="0.5"><path transform="rotate(0)" d="M0 0 Q12.247448713915897 21.213203435596423 -24.494897427831773 42.42640687119286 Q-24.494897427831788 7.105427357601002e-15 0 0Z" fill="#e4d5b7"/><circle cx="-19.59591794226542" cy="33.94112549695429" r="2.7994168488950613" fill="#493118"/><path transform="rotate(120)" d="M0 0 Q12.247448713915897 21.213203435596423 -24.494897427831773 42.42640687119286 Q-24.494897427831788 7.105427357601002e-15 0 0Z" fill="#e4d5b7"/><circle cx="-19.595917942265444" cy="-33.94112549695428" r="2.7994168488950613" fill="#493118"/><path transform="rotate(240)" d="M0 0 Q12.247448713915897 21.213203435596423 -24.494897427831773 42.42640687119286 Q-24.494897427831788 7.105427357601002e-15 0 0Z" fill="#e4d5b7"/><circle cx="39.19183588453086" cy="-9.599231273739819e-15" r="2.7994168488950613" fill="#493118"/></g><g transform="translate(91.41620172685641, 42.42640687119285) rotate(60)" stroke="brown" stroke-width="0.5"><path transform="rotate(0)" d="M0 0 Q12.247448713915897 21.213203435596423 -24.494897427831773 42.42640687119286 Q-24.494897427831788 7.105427357601002e-15 0 0Z" fill="#e4d5b7"/><circle cx="-19.59591794226542" cy="33.94112549695429" r="2.7994168488950613" fill="#493118"/><path transform="rotate(120)" d="M0 0 Q12.247448713915897 21.213203435596423 -24.494897427831773 42.42640687119286 Q-24.494897427831788 7.105427357601002e-15 0 0Z" fill="#e4d5b7"/><circle cx="-19.595917942265444" cy="-33.94112549695428" r="2.7994168488950613" fill="#493118"/><path transform="rotate(240)" d="M0 0 Q12.247448713915897 21.213203435596423 -24.494897427831773 42.42640687119286 Q-24.494897427831788 7.105427357601002e-15 0 0Z" fill="#e4d5b7"/><circle cx="39.19183588453086" cy="-9.599231273739819e-15" r="2.7994168488950613" fill="#493118"/></g><g transform="translate(-91.41620172685641, -42.42640687119285) rotate(0)" stroke="brown" stroke-width="0.5"><path transform="rotate(0)" d="M0 0 Q12.247448713915897 21.213203435596423 -24.494897427831773 42.42640687119286 Q-24.494897427831788 7.105427357601002e-15 0 0Z" fill="#e4d5b7"/><circle cx="-19.59591794226542" cy="33.94112549695429" r="2.7994168488950613" fill="#493118"/><path transform="rotate(120)" d="M0 0 Q12.247448713915897 21.213203435596423 -24.494897427831773 42.42640687119286 Q-24.494897427831788 7.105427357601002e-15 0 0Z" fill="#e4d5b7"/><circle cx="-19.595917942265444" cy="-33.94112549695428" r="2.7994168488950613" fill="#493118"/><path transform="rotate(240)" d="M0 0 Q12.247448713915897 21.213203435596423 -24.494897427831773 42.42640687119286 Q-24.494897427831788 7.105427357601002e-15 0 0Z" fill="#e4d5b7"/><circle cx="39.19183588453086" cy="-9.599231273739819e-15" r="2.7994168488950613" fill="#493118"/></g><g transform="translate(-42.42640687119285, 91.41620172685641) rotate(30)" stroke="brown" stroke-width="0.5"><path transform="rotate(0)" d="M0 0 Q12.247448713915897 21.213203435596423 -24.494897427831773 42.42640687119286 Q-24.494897427831788 7.105427357601002e-15 0 0Z" fill="#e4d5b7"/><circle cx="-19.59591794226542" cy="33.94112549695429" r="2.7994168488950613" fill="#493118"/><path transform="rotate(120)" d="M0 0 Q12.247448713915897 21.213203435596423 -24.494897427831773 42.42640687119286 Q-24.494897427831788 7.105427357601002e-15 0 0Z" fill="#e4d5b7"/><circle cx="-19.595917942265444" cy="-33.94112549695428" r="2.7994168488950613" fill="#493118"/><path transform="rotate(240)" d="M0 0 Q12.247448713915897 21.213203435596423 -24.494897427831773 42.42640687119286 Q-24.494897427831788 7.105427357601002e-15 0 0Z" fill="#e4d5b7"/><circle cx="39.19183588453086" cy="-9.599231273739819e-15" r="2.7994168488950613" fill="#493118"/></g></g></svg>