<svg xmlns="http://www.w3.org/2000/svg" width="400" height="400"><rect rx="15" width="100%" height="100%" fill="#493118"/><g transform="translate(200, 200)"><g transform="translate(0, 0) rotate(30)" stroke="brown" stroke-width="0.5"><path transform="rotate(0)" d="M0 0 Q48.75 28.14582562299425 32.50000000000001 56.29165124598851 Q1.0658141036401503e-14 56.29165124598852 0 0Z" fill="#e4d5b7"/><circle cx="26.000000000000007" cy="45.03332099679081" r="3.7142857142857144" fill="#493118"/><path transform="rotate(60)" d="M0 0 Q48.75 28.14582562299425 32.50000000000001 56.29165124598851 Q1.0658141036401503e-14 56.29165124598852 0 0Z" fill="#e4d5b7"/><circle cx="-25.99999999999999" cy="45.03332099679082" r="3.7142857142857144" fill="#493118"/><path transform="rotate(120)" d="M0 0 Q48.75 28.14582562299425 32.50000000000001 56.29165124598851 Q1.0658141036401503e-14 56.29165124598852 0 0Z" fill="#e4d5b7"/><circle cx="-52" cy="6.368163355566237e-15" r="3.7142857142857144" fill="#493118"/><path transform="rotate(180)" d="M0 0 Q48.75 28.14582562299425 32.50000000000001 56.29165124598851 Q1.0658141036401503e-14 56.29165124598852 0 0Z" fill="#e4d5b7"/><circle cx="-26.000000000000025" cy="-45.0333209967908" r="3.7142857142857144" fill="#493118"/><path transform="rotate(240)" d="M0 0 Q48.75 28.14582562299425 32.50000000000001 56.29165124598851 Q1.0658141036401503e-14 56.29165124598852 0 0Z" fill="#e4d5b7"/><circle cx="25.999999999999968" cy="-45.033320996790835" r="3.7142857142857144" fill="#493118"/><path transform="rotate(300)" d="M0 0 Q48.75 28.14582562299425 32.50000000000001 56.29165124598851 Q1.0658141036401503e-14 56.29165124598852 0 0Z" fill="#e4d5b7"/><circle cx="52" cy="-1.2736326711132474e-14" r="3.7142857142857144" fill="#493118"/></g><g transform="translate(88.79165124598852, 0) rotate(45)" stroke="brown" stroke-width="0.5"><path transform="rotate(0)" d="M0 0 Q22.980970388562795 22.98097038856279 2.8143571827653534e-15 45.96194077712559 Q-22.980970388562795 22.9809703885628 0 0Z" fill="#e4d5b7"/><circle cx="2.251485746212283e-15" cy="36.76955262170048" r="2.626396615835748" fill="#493118"/><path transform="rotate(90)" d="M0 0 Q22.980970388562795 22.98097038856279 2.8143571827653534e-15 45.96194077712559 Q-22.980970388562795 22.9809703885628 0 0Z" fill="#e4d5b7"/><circle cx="-36.76955262170048" cy="4.502971492424566e-15" r="2.626396615835748" fill="#493118"/><path transform="rotate(180)" d="M0 0 Q22.980970388562795 22.98097038856279 2.8143571827653534e-15 45.96194077712559 Q-22.980970388562795 22.9809703885628 0 0Z" fill="#e4d5b7"/><circle cx="-6.754457238636848e-15" cy="-36.76955262170048" r="2.626396615835748" fill="#493118"/><path transform="rotate(270)" d="M0 0 Q22.980970388562795 22.98097038856279 2.8143571827653534e-15 45.96194077712559 Q-22.980970388562795 22.9809703885628 0 0Z" fill="#e4d5b7"/><circle cx="36.76955262170048" cy="-9.005942984849132e-15" r="2.626396615835748" fill="#493118"/></g><g transform="translate(44.395825622994266, 76.89582562299425) rotate(15)" stroke="brown" stroke-width="0.5"><path transform="rotate(0)" d="M0 0 Q22.980970388562795 22.98097038856279 2.8143571827653534e-15 45.96194077712559 Q-22.980970388562795 22.9809703885628 0 0Z" fill="#e4d5b7"/><circle cx="2.251485746212283e-15" cy="36.76955262170048" r="2.626396615835748" fill="#493118"/><path transform="rotate(90)" d="M0 0 Q22.980970388562795 22.98097038856279 2.8143571827653534e-15 45.96194077712559 Q-22.980970388562795 22.9809703885628 0 0Z" fill="#e4d5b7"/><circle cx="-36.76955262170048" cy="4.502971492424566e-15" r="2.626396615835748" fill="#493118"/><path transform="rotate(180)" d="M0 0 Q22.980970388562795 22.98097038856279 2.8143571827653534e-15 45.96194077712559 Q-22.980970388562795 22.9809703885628 0 0Z" fill="#e4d5b7"/><circle cx="-6.754457238636848e-15" cy="-36.76955262170048" r="2.626396615835748" fill="#493118"/><path transform="rotate(270)" d="M0 0 Q22.980970388562795 22.98097038856279 2.8143571827653534e-15 45.96194077712559 Q-22.980970388562795 22.9809703885628 0 0Z" fill="#e4d5b7"/><circle cx="36.76955262170048" cy="-9.005942984849132e-15" r="2.626396615835748" fill="#493118"/></g><g transform="translate(-44.39582562299424, 76.89582562299427) rotate(75)" stroke="brown" stroke-width="0.5"><path transform="rotate(0)" d="M0 0 Q22.980970388562795 22.98097038856279 2.8143571827653534e-15 45.96194077712559 Q-22.980970388562795 22.9809703885628 0 0Z" fill="#e4d5b7"/><circle cx="2.251485746212283e-15" cy="36.76955262170048" r="2.626396615835748" fill="#493118"/><path transform="rotate(90)" d="M0 0 Q22.980970388562795 22.98097038856279 2.8143571827653534e-15 45.96194077712559 Q-22.980970388562795 22.9809703885628 0 0Z" fill="#e4d5b7"/><circle cx="-36.76955262170048" cy="4.502971492424566e-15" r="2.626396615835748" fill="#493118"/><path transform="rotate(180)" d="M0 0 Q22.980970388562795 22.98097038856279 2.8143571827653534e-15 45.96194077712559 Q-22.980970388562795 22.9809703885628 0 0Z" fill="#e4d5b7"/><circle cx="-6.754457238636848e-15" cy="-36.76955262170048" r="2.626396615835748" fill="#493118"/><path transform="rotate(270)" d="M0 0 Q22.980970388562795 22.98097038856279 2.8143571827653534e-15 45.96194077712559 Q-22.980970388562795 22.9809703885628 0 0Z" fill="#e4d5b7"/><circle cx="36.76955262170048" cy="-9.005942984849132e-15" r="2.626396615835748" fill="#493118"/></g><g transform="translate(-88.79165124598852, 1.0873841148940793e-14) rotate(135)" stroke="brown" stroke-width="0.5"><path transform="rotate(0)" d="M0 0 Q22.980970388562795 22.98097038856279 2.8143571827653534e-15 45.96194077712559 Q-22.980970388562795 22.9809703885628 0 0Z" fill="#e4d5b7"/><circle cx="2.251485746212283e-15" cy="36.76955262170048" r="2.626396615835748" fill="#493118"/><path transform="rotate(90)" d="M0 0 Q22.980970388562795 22.98097038856279 2.8143571827653534e-15 45.96194077712559 Q-22.980970388562795 22.9809703885628 0 0Z" fill="#e4d5b7"/><circle cx="-36.76955262170048" cy="4.502971492424566e-15" r="2.626396615835748" fill="#493118"/><path transform="rotate(180)" d="M0 0 Q22.980970388562795 22.98097038856279 2.8143571827653534e-15 45.96194077712559 Q-22.980970388562795 22.9809703885628 0 0Z" fill="#e4d5b7"/><circle cx="-6.754457238636848e-15" cy="-36.76955262170048" r="2.626396615835748" fill="#493118"/><path transform="rotate(270)" d="M0 0 Q22.980970388562795 22.98097038856279 2.8143571827653534e-15 45.96194077712559 Q-22.980970388562795 22.9809703885628 0 0Z" fill="#e4d5b7"/><circle cx="36.76955262170048" cy="-9.005942984849132e-15" r="2.626396615835748" fill="#493118"/></g><g transform="translate(-44.3958256229943, -76.89582562299424) rotate(195)" stroke="brown" stroke-width="0.5"><path transform="rotate(0)" d="M0 0 Q22.980970388562795 22.98097038856279 2.8143571827653534e-15 45.96194077712559 Q-22.980970388562795 22.9809703885628 0 0Z" fill="#e4d5b7"/><circle cx="2.251485746212283e-15" cy="36.76955262170048" r="2.626396615835748" fill="#493118"/><path transform="rotate(90)" d="M0 0 Q22.980970388562795 22.98097038856279 2.8143571827653534e-15 45.96194077712559 Q-22.980970388562795 22.9809703885628 0 0Z" fill="#e4d5b7"/><circle cx="-36.76955262170048" cy="4.502971492424566e-15" r="2.626396615835748" fill="#493118"/><path transform="rotate(180)" d="M0 0 Q22.980970388562795 22.98097038856279 2.8143571827653534e-15 45.96194077712559 Q-22.980970388562795 22.9809703885628 0 0Z" fill="#e4d5b7"/><circle cx="-6.754457238636848e-15" cy="-36.76955262170048" r="2.626396615835748" fill="#493118"/><path transform="rotate(270)" d="M0 0 Q22.980970388562795 22.98097038856279 2.8143571827653534e-15 45.96194077712559 Q-22.980970388562795 22.9809703885628 0 0Z" fill="#e4d5b7"/><circle cx="36.76955262170048" cy="-9.005942984849132e-15" r="2.626396615835748" fill="#493118"/></g><g transform="translate(44.3958256229942, -76.8958256229943) rotate(255)" stroke="brown" stroke-width="0.5"><path transform="rotate(0)" d="M0 0 Q22.980970388562795 22.98097038856279 2.8143571827653534e-15 45.96194077712559 Q-22.980970388562795 22.9809703885628 0 0Z" fill="#e4d5b7"/><circle cx="2.251485746212283e-15" cy="36.76955262170048" r="2.626396615835748" fill="#493118"/><path transform="rotate(90)" d="M0 0 Q22.980970388562795 22.98097038856279 2.8143571827653534e-15 45.96194077712559 Q-22.980970388562795 22.9809703885628 0 0Z" fill="#e4d5b7"/><circle cx="-36.76955262170048" cy="4.502971492424566e-15" r="2.626396615835748" fill="#493118"/><path transform="rotate(180)" d="M0 0 Q22.980970388562795 22.98097038856279 2.8143571827653534e-15 45.96194077712559 Q-22.980970388562795 22.9809703885628 0 0Z" fill="#e4d5b7"/><circle cx="-6.754457238636848e-15" cy="-36.76955262170048" r="2.626396615835748" fill="#493118"/><path transform="rotate(270)" d="M0 0 Q22.980970388562795 22.98097038856279 2.8143571827653534e-15 45.96194077712559 Q-22.980970388562795 22.9809703885628 0 0Z" fill="#e4d5b7"/><circle cx="36.76955262170048" cy="-9.005942984849132e-15" r="2.626396615835748" fill="#493118"/></g><g transform="translate(88.79165124598852, -51.263883748662835) rotate(30)" stroke="brown" stroke-width="0.5"><path transform="rotate(0)" d="M0 0 Q9.381941874331423 16.25 -18.76388374866283 32.50000000000001 Q-18.763883748662842 7.105427357601002e-15 0 0Z" fill="#e4d5b7"/><circle cx="-15.011106998930266" cy="26.000000000000007" r="2.144443856990039" fill="#493118"/><path transform="rotate(120)" d="M0 0 Q9.381941874331423 16.25 -18.76388374866283 32.50000000000001 Q-18.763883748662842 7.105427357601002e-15 0 0Z" fill="#e4d5b7"/><circle cx="-15.011106998930286" cy="-25.999999999999996" r="2.144443856990039" fill="#493118"/><path transform="rotate(240)" d="M0 0 Q9.381941874331423 16.25 -18.76388374866283 32.50000000000001 Q-18.763883748662842 7.105427357601002e-15 0 0Z" fill="#e4d5b7"/><circle cx="30.022213997860543" cy="-7.353321655159355e-15" r="2.144443856990039" fill="#493118"/></g><g transform="translate(88.79165124598852, 51.263883748662835) rotate(-30)" stroke="brown" stroke-width="0.5"><path transform="rotate(0)" d="M0 0 Q9.381941874331423 16.25 -18.76388374866283 32.50000000000001 Q-18.763883748662842 7.105427357601002e-15 0 0Z" fill="#e4d5b7"/><circle cx="-15.011106998930266" cy="26.000000000000007" r="2.144443856990039" fill="#493118"/><path transform="rotate(120)" d="M0 0 Q9.381941874331423 16.25 -18.76388374866283 32.50000000000001 Q-18.763883748662842 7.105427357601002e-15 0 0Z" fill="#e4d5b7"/><circle cx="-15.011106998930286" cy="-25.999999999999996" r="2.144443856990039" fill="#493118"/><path transform="rotate(240)" d="M0 0 Q9.381941874331423 16.25 -18.76388374866283 32.50000000000001 Q-18.763883748662842 7.105427357601002e-15 0 0Z" fill="#e4d5b7"/><circle cx="30.022213997860543" cy="-7.353321655159355e-15" r="2.144443856990039" fill="#493118"/></g><g transform="translate(-88.79165124598852, -51.263883748662835) rotate(30)" stroke="brown" stroke-width="0.5"><path transform="rotate(0)" d="M0 0 Q9.381941874331423 16.25 -18.76388374866283 32.50000000000001 Q-18.763883748662842 7.105427357601002e-15 0 0Z" fill="#e4d5b7"/><circle cx="-15.011106998930266" cy="26.000000000000007" r="2.144443856990039" fill="#493118"/><path transform="rotate(120)" d="M0 0 Q9.381941874331423 16.25 -18.76388374866283 32.50000000000001 Q-18.763883748662842 7.105427357601002e-15 0 0Z" fill="#e4d5b7"/><circle cx="-15.011106998930286" cy="-25.999999999999996" r="2.144443856990039" fill="#493118"/><path transform="rotate(240)" d="M0 0 Q9.381941874331423 16.25 -18.76388374866283 32.50000000000001 Q-18.763883748662842 7.105427357601002e-15 0 0Z" fill="#e4d5b7"/><circle cx="30.022213997860543" cy="-7.353321655159355e-15" r="2.144443856990039" fill="#493118"/></g><g transform="translate(-88.79165124598852, 51.263883748662835) rotate(-30)" stroke="brown" stroke-width="0.5"><path transform="rotate(0)" d="M0 0 Q9.381941874331423 16.25 -18.76388374866283 32.50000000000001 Q-18.763883748662842 7.105427357601002e-15 0 0Z" fill="#e4d5b7"/><circle cx="-15.011106998930266" cy="26.000000000000007" r="2.144443856990039" fill="#493118"/><path transform="rotate(120)" d="M0 0 Q9.381941874331423 16.25 -18.76388374866283 32.50000000000001 Q-18.763883748662842 7.105427357601002e-15 0 0Z" fill="#e4d5b7"/><circle cx="-15.011106998930286" cy="-25.999999999999996" r="2.144443856990039" fill="#493118"/><path transform="rotate(240)" d="M0 0 Q9.381941874331423 16.25 -18.76388374866283 32.50000000000001 Q-18.763883748662842 7.105427357601002e-15 0 0Z" fill="#e4d5b7"/><circle cx="30.022213997860543" cy="-7.353321655159355e-15" r="2.144443856990039" fill="#493118"/></g><g transform="translate(0, 102.52776749732567) rotate(30)" stroke="brown" stroke-width="0.5"><path transform="rotate(0)" d="M0 0 Q9.381941874331423 16.25 -18.76388374866283 32.50000000000001 Q-18.763883748662842 7.105427357601002e-15 0 0Z" fill="#e4d5b7"/><circle cx="-15.011106998930266" cy="26.000000000000007" r="2.144443856990039" fill="#493118"/><path transform="rotate(120)" d="M0 0 Q9.381941874331423 16.25 -18.76388374866283 32.50000000000001 Q-18.763883748662842 7.105427357601002e-15 0 0Z" fill="#e4d5b7"/><circle cx="-15.011106998930286" cy="-25.999999999999996" r="2.144443856990039" fill="#493118"/><path transform="rotate(240)" d="M0 0 Q9.381941874331423 16.25 -18.76388374866283 32.50000000000001 Q-18.763883748662842 7.105427357601002e-15 0 0Z" fill="#e4d5b7"/><circle cx="30.022213997860543" cy="-7.353321655159355e-15" r="2.144443856990039" fill="#493118"/></g><g transform="translate(0, -102.52776749732567) rotate(-30)" stroke="brown" stroke-width="0.5"><path transform="rotate(0)" d="M0 0 Q9.381941874331423 16.25 -18.76388374866283 32.50000000000001 Q-18.763883748662842 7.105427357601002e-15 0 0Z" fill="#e4d5b7"/><circle cx="-15.011106998930266" cy="26.000000000000007" r="2.144443856990039" fill="#493118"/><path transform="rotate(120)" d="M0 0 Q9.381941874331423 16.25 -18.76388374866283 32.50000000000001 Q-18.763883748662842 7.105427357601002e-15 0 0Z" fill="#e4d5b7"/><circle cx="-15.011106998930286" cy="-25.999999999999996" r="2.144443856990039" fill="#493118"/><path transform="rotate(240)" d="M0 0 Q9.381941874331423 16.25 -18.76388374866283 32.50000000000001 Q-18.763883748662842 7.105427357601002e-15 0 0Z" fill="#e4d5b7"/><circle cx="30.022213997860543" cy="-7.353321655159355e-15" r="2.144443856990039" fill="#493118"/></g></g></svg>