<svg xmlns="http://www.w3.org/2000/svg" width="400" height="400"><rect rx="15" width="100%" height="100%" fill="#493118"/><g transform="translate(200, 200)"><g transform="translate(-100, 0) rotate(0)" stroke="brown" stroke-width="0.5"><path transform="rotate(0)" d="M0 0 Q37.5 21.65063509461096 25.000000000000007 43.30127018922193 Q8.881784197001252e-15 43.30127018922194 0 0Z" fill="#e4d5b7"/><circle cx="20.000000000000007" cy="34.64101615137755" r="2.857142857142857" fill="#493118"/><path transform="rotate(60)" d="M0 0 Q37.5 21.65063509461096 25.000000000000007 43.30127018922193 Q8.881784197001252e-15 43.30127018922194 0 0Z" fill="#e4d5b7"/><circle cx="-19.999999999999993" cy="34.64101615137755" r="2.857142857142857" fill="#493118"/><path transform="rotate(120)" d="M0 0 Q37.5 21.65063509461096 25.000000000000007 43.30127018922193 Q8.881784197001252e-15 43.30127018922194 0 0Z" fill="#e4d5b7"/><circle cx="-40" cy="4.898587196589413e-15" r="2.857142857142857" fill="#493118"/><path transform="rotate(180)" d="M0 0 Q37.5 21.65063509461096 25.000000000000007 43.30127018922193 Q8.881784197001252e-15 43.30127018922194 0 0Z" fill="#e4d5b7"/><circle cx="-20.000000000000018" cy="-34.641016151377535" r="2.857142857142857" fill="#493118"/><path transform="rotate(240)" d="M0 0 Q37.5 21.65063509461096 25.000000000000007 43.30127018922193 Q8.881784197001252e-15 43.30127018922194 0 0Z" fill="#e4d5b7"/><circle cx="19.999999999999975" cy="-34.64101615137756" r="2.857142857142857" fill="#493118"/><path transform="rotate(300)" d="M0 0 Q37.5 21.65063509461096 25.000000000000007 43.30127018922193 Q8.881784197001252e-15 43.30127018922194 0 0Z" fill="#e4d5b7"/><circle cx="40" cy="-9.797174393178826e-15" r="2.857142857142857" fill="#493118"/></g><g transform="translate(0, 0) rotate(0)" stroke="brown" stroke-width="0.5"><path transform="rotate(0)" d="M0 0 Q37.5 21.65063509461096 25.000000000000007 43.30127018922193 Q8.881784197001252e-15 43.30127018922194 0 0Z" fill="#e4d5b7"/><circle cx="20.000000000000007" cy="34.64101615137755" r="2.857142857142857" fill="#493118"/><path transform="rotate(60)" d="M0 0 Q37.5 21.65063509461096 25.000000000000007 43.30127018922193 Q8.881784197001252e-15 43.30127018922194 0 0Z" fill="#e4d5b7"/><circle cx="-19.999999999999993" cy="34.64101615137755" r="2.857142857142857" fill="#493118"/><path transform="rotate(120)" d="M0 0 Q37.5 21.65063509461096 25.000000000000007 43.30127018922193 Q8.881784197001252e-15 43.30127018922194 0 0Z" fill="#e4d5b7"/><circle cx="-40" cy="4.898587196589413e-15" r="2.857142857142857" fill="#493118"/><path transform="rotate(180)" d="M0 0 Q37.5 21.65063509461096 25.000000000000007 43.30127018922193 Q8.881784197001252e-15 43.30127018922194 0 0Z" fill="#e4d5b7"/><circle cx="-20.000000000000018" cy="-34.641016151377535" r="2.857142857142857" fill="#493118"/><path transform="rotate(240)" d="M0 0 Q37.5 21.65063509461096 25.000000000000007 43.30127018922193 Q8.881784197001252e-15 43.30127018922194 0 0Z" fill="#e4d5b7"/><circle cx="19.999999999999975" cy="-34.64101615137756" r="2.857142857142857" fill="#493118"/><path transform="rotate(300)" d="M0 0 Q37.5 21.65063509461096 25.000000000000007 43.30127018922193 Q8.881784197001252e-15 43.30127018922194 0 0Z" fill="#e4d5b7"/><circle cx="40" cy="-9.797174393178826e-15" r="2.857142857142857" fill="#493118"/></g><g transform="translate(100, 0) rotate(0)" stroke="brown" stroke-width="0.5"><path transform="rotate(0)" d="M0 0 Q37.5 21.65063509461096 25.000000000000007 43.30127018922193 Q8.881784197001252e-15 43.30127018922194 0 0Z" fill="#e4d5b7"/><circle cx="20.000000000000007" cy="34.64101615137755" r="2.857142857142857" fill="#493118"/><path transform="rotate(60)" d="M0 0 Q37.5 21.65063509461096 25.000000000000007 43.30127018922193 Q8.881784197001252e-15 43.30127018922194 0 0Z" fill="#e4d5b7"/><circle cx="-19.999999999999993" cy="34.64101615137755" r="2.857142857142857" fill="#493118"/><path transform="rotate(120)" d="M0 0 Q37.5 21.65063509461096 25.000000000000007 43.30127018922193 Q8.881784197001252e-15 43.30127018922194 0 0Z" fill="#e4d5b7"/><circle cx="-40" cy="4.898587196589413e-15" r="2.857142857142857" fill="#493118"/><path transform="rotate(180)" d="M0 0 Q37.5 21.65063509461096 25.000000000000007 43.30127018922193 Q8.881784197001252e-15 43.30127018922194 0 0Z" fill="#e4d5b7"/><circle cx="-20.000000000000018" cy="-34.641016151377535" r="2.857142857142857" fill="#493118"/><path transform="rotate(240)" d="M0 0 Q37.5 21.65063509461096 25.000000000000007 43.30127018922193 Q8.881784197001252e-15 43.30127018922194 0 0Z" fill="#e4d5b7"/><circle cx="19.999999999999975" cy="-34.64101615137756" r="2.857142857142857" fill="#493118"/><path transform="rotate(300)" d="M0 0 Q37.5 21.65063509461096 25.000000000000007 43.30127018922193 Q8.881784197001252e-15 43.30127018922194 0 0Z" fill="#e4d5b7"/><circle cx="40" cy="-9.797174393178826e-15" r="2.857142857142857" fill="#493118"/></g><g transform="translate(-50.000000000000014, -86.60254037844386) rotate(0)" stroke="brown" stroke-width="0.5"><path transform="rotate(0)" d="M0 0 Q37.5 21.65063509461096 25.000000000000007 43.30127018922193 Q8.881784197001252e-15 43.30127018922194 0 0Z" fill="#e4d5b7"/><circle cx="20.000000000000007" cy="34.64101615137755" r="2.857142857142857" fill="#493118"/><path transform="rotate(60)" d="M0 0 Q37.5 21.65063509461096 25.000000000000007 43.30127018922193 Q8.881784197001252e-15 43.30127018922194 0 0Z" fill="#e4d5b7"/><circle cx="-19.999999999999993" cy="34.64101615137755" r="2.857142857142857" fill="#493118"/><path transform="rotate(120)" d="M0 0 Q37.5 21.65063509461096 25.000000000000007 43.30127018922193 Q8.881784197001252e-15 43.30127018922194 0 0Z" fill="#e4d5b7"/><circle cx="-40" cy="4.898587196589413e-15" r="2.857142857142857" fill="#493118"/><path transform="rotate(180)" d="M0 0 Q37.5 21.65063509461096 25.000000000000007 43.30127018922193 Q8.881784197001252e-15 43.30127018922194 0 0Z" fill="#e4d5b7"/><circle cx="-20.000000000000018" cy="-34.641016151377535" r="2.857142857142857" fill="#493118"/><path transform="rotate(240)" d="M0 0 Q37.5 21.65063509461096 25.000000000000007 43.30127018922193 Q8.881784197001252e-15 43.30127018922194 0 0Z" fill="#e4d5b7"/><circle cx="19.999999999999975" cy="-34.64101615137756" r="2.857142857142857" fill="#493118"/><path transform="rotate(300)" d="M0 0 Q37.5 21.65063509461096 25.000000000000007 43.30127018922193 Q8.881784197001252e-15 43.30127018922194 0 0Z" fill="#e4d5b7"/><circle cx="40" cy="-9.797174393178826e-15" r="2.857142857142857" fill="#493118"/></g><g transform="translate(49.999999999999986, -86.60254037844386) rotate(0)" stroke="brown" stroke-width="0.5"><path transform="rotate(0)" d="M0 0 Q37.5 21.65063509461096 25.000000000000007 43.30127018922193 Q8.881784197001252e-15 43.30127018922194 0 0Z" fill="#e4d5b7"/><circle cx="20.000000000000007" cy="34.64101615137755" r="2.857142857142857" fill="#493118"/><path transform="rotate(60)" d="M0 0 Q37.5 21.65063509461096 25.000000000000007 43.30127018922193 Q8.881784197001252e-15 43.30127018922194 0 0Z" fill="#e4d5b7"/><circle cx="-19.999999999999993" cy="34.64101615137755" r="2.857142857142857" fill="#493118"/><path transform="rotate(120)" d="M0 0 Q37.5 21.65063509461096 25.000000000000007 43.30127018922193 Q8.881784197001252e-15 43.30127018922194 0 0Z" fill="#e4d5b7"/><circle cx="-40" cy="4.898587196589413e-15" r="2.857142857142857" fill="#493118"/><path transform="rotate(180)" d="M0 0 Q37.5 21.65063509461096 25.000000000000007 43.30127018922193 Q8.881784197001252e-15 43.30127018922194 0 0Z" fill="#e4d5b7"/><circle cx="-20.000000000000018" cy="-34.641016151377535" r="2.857142857142857" fill="#493118"/><path transform="rotate(240)" d="M0 0 Q37.5 21.65063509461096 25.000000000000007 43.30127018922193 Q8.881784197001252e-15 43.30127018922194 0 0Z" fill="#e4d5b7"/><circle cx="19.999999999999975" cy="-34.64101615137756" r="2.857142857142857" fill="#493118"/><path transform="rotate(300)" d="M0 0 Q37.5 21.65063509461096 25.000000000000007 43.30127018922193 Q8.881784197001252e-15 43.30127018922194 0 0Z" fill="#e4d5b7"/><circle cx="40" cy="-9.797174393178826e-15" r="2.857142857142857" fill="#493118"/></g><g transform="translate(-50.000000000000014, 86.60254037844386) rotate(0)" stroke="brown" stroke-width="0.5"><path transform="rotate(0)" d="M0 0 Q37.5 21.65063509461096 25.000000000000007 43.30127018922193 Q8.881784197001252e-15 43.30127018922194 0 0Z" fill="#e4d5b7"/><circle cx="20.000000000000007" cy="34.64101615137755" r="2.857142857142857" fill="#493118"/><path transform="rotate(60)" d="M0 0 Q37.5 21.65063509461096 25.000000000000007 43.30127018922193 Q8.881784197001252e-15 43.30127018922194 0 0Z" fill="#e4d5b7"/><circle cx="-19.999999999999993" cy="34.64101615137755" r="2.857142857142857" fill="#493118"/><path transform="rotate(120)" d="M0 0 Q37.5 21.65063509461096 25.000000000000007 43.30127018922193 Q8.881784197001252e-15 43.30127018922194 0 0Z" fill="#e4d5b7"/><circle cx="-40" cy="4.898587196589413e-15" r="2.857142857142857" fill="#493118"/><path transform="rotate(180)" d="M0 0 Q37.5 21.65063509461096 25.000000000000007 43.30127018922193 Q8.881784197001252e-15 43.30127018922194 0 0Z" fill="#e4d5b7"/><circle cx="-20.000000000000018" cy="-34.641016151377535" r="2.857142857142857" fill="#493118"/><path transform="rotate(240)" d="M0 0 Q37.5 21.65063509461096 25.000000000000007 43.30127018922193 Q8.881784197001252e-15 43.30127018922194 0 0Z" fill="#e4d5b7"/><circle cx="19.999999999999975" cy="-34.64101615137756" r="2.857142857142857" fill="#493118"/><path transform="rotate(300)" d="M0 0 Q37.5 21.65063509461096 25.000000000000007 43.30127018922193 Q8.881784197001252e-15 43.30127018922194 0 0Z" fill="#e4d5b7"/><circle cx="40" cy="-9.797174393178826e-15" r="2.857142857142857" fill="#493118"/></g><g transform="translate(49.999999999999986, 86.60254037844386) rotate(0)" stroke="brown" stroke-width="0.5"><path transform="rotate(0)" d="M0 0 Q37.5 21.65063509461096 25.000000000000007 43.30127018922193 Q8.881784197001252e-15 43.30127018922194 0 0Z" fill="#e4d5b7"/><circle cx="20.000000000000007" cy="34.64101615137755" r="2.857142857142857" fill="#493118"/><path transform="rotate(60)" d="M0 0 Q37.5 21.65063509461096 25.000000000000007 43.30127018922193 Q8.881784197001252e-15 43.30127018922194 0 0Z" fill="#e4d5b7"/><circle cx="-19.999999999999993" cy="34.64101615137755" r="2.857142857142857" fill="#493118"/><path transform="rotate(120)" d="M0 0 Q37.5 21.65063509461096 25.000000000000007 43.30127018922193 Q8.881784197001252e-15 43.30127018922194 0 0Z" fill="#e4d5b7"/><circle cx="-40" cy="4.898587196589413e-15" r="2.857142857142857" fill="#493118"/><path transform="rotate(180)" d="M0 0 Q37.5 21.65063509461096 25.000000000000007 43.30127018922193 Q8.881784197001252e-15 43.30127018922194 0 0Z" fill="#e4d5b7"/><circle cx="-20.000000000000018" cy="-34.641016151377535" r="2.857142857142857" fill="#493118"/><path transform="rotate(240)" d="M0 0 Q37.5 21.65063509461096 25.000000000000007 43.30127018922193 Q8.881784197001252e-15 43.30127018922194 0 0Z" fill="#e4d5b7"/><circle cx="19.999999999999975" cy="-34.64101615137756" r="2.857142857142857" fill="#493118"/><path transform="rotate(300)" d="M0 0 Q37.5 21.65063509461096 25.000000000000007 43.30127018922193 Q8.881784197001252e-15 43.30127018922194 0 0Z" fill="#e4d5b7"/><circle cx="40" cy="-9.797174393178826e-15" r="2.857142857142857" fill="#493118"/></g><g transform="translate(0, -57.735026918962575) rotate(30)" stroke="brown" stroke-width="0.5"><path transform="rotate(0)" d="M0 0 Q7.216878364870326 12.499999999999998 -14.433756729740638 25.000000000000004 Q-14.433756729740647 5.329070518200751e-15 0 0Z" fill="#e4d5b7"/><circle cx="-11.547005383792511" cy="20.000000000000004" r="1.6495721976846451" fill="#493118"/><path transform="rotate(120)" d="M0 0 Q7.216878364870326 12.499999999999998 -14.433756729740638 25.000000000000004 Q-14.433756729740647 5.329070518200751e-15 0 0Z" fill="#e4d5b7"/><circle cx="-11.547005383792527" cy="-19.999999999999996" r="1.6495721976846451" fill="#493118"/><path transform="rotate(240)" d="M0 0 Q7.216878364870326 12.499999999999998 -14.433756729740638 25.000000000000004 Q-14.433756729740647 5.329070518200751e-15 0 0Z" fill="#e4d5b7"/><circle cx="23.094010767585033" cy="-5.656401273199504e-15" r="1.6495721976846451" fill="#493118"/></g><g transform="translate(49.99999999999999, -28.867513459481287) rotate(-30)" stroke="brown" stroke-width="0.5"><path transform="rotate(0)" d="M0 0 Q7.216878364870326 12.499999999999998 -14.433756729740638 25.000000000000004 Q-14.433756729740647 5.329070518200751e-15 0 0Z" fill="#e4d5b7"/><circle cx="-11.547005383792511" cy="20.000000000000004" r="1.6495721976846451" fill="#493118"/><path transform="rotate(120)" d="M0 0 Q7.216878364870326 12.499999999999998 -14.433756729740638 25.000000000000004 Q-14.433756729740647 5.329070518200751e-15 0 0Z" fill="#e4d5b7"/><circle cx="-11.547005383792527" cy="-19.999999999999996" r="1.6495721976846451" fill="#493118"/><path transform="rotate(240)" d="M0 0 Q7.216878364870326 12.499999999999998 -14.433756729740638 25.000000000000004 Q-14.433756729740647 5.329070518200751e-15 0 0Z" fill="#e4d5b7"/><circle cx="23.094010767585033" cy="-5.656401273199504e-15" r="1.6495721976846451" fill="#493118"/></g><g transform="translate(50, 28.867513459481277) rotate(30)" stroke="brown" stroke-width="0.5"><path transform="rotate(0)" d="M0 0 Q7.216878364870326 12.499999999999998 -14.433756729740638 25.000000000000004 Q-14.433756729740647 5.329070518200751e-15 0 0Z" fill="#e4d5b7"/><circle cx="-11.547005383792511" cy="20.000000000000004" r="1.6495721976846451" fill="#493118"/><path transform="rotate(120)" d="M0 0 Q7.216878364870326 12.499999999999998 -14.433756729740638 25.000000000000004 Q-14.433756729740647 5.329070518200751e-15 0 0Z" fill="#e4d5b7"/><circle cx="-11.547005383792527" cy="-19.999999999999996" r="1.6495721976846451" fill="#493118"/><path transform="rotate(240)" d="M0 0 Q7.216878364870326 12.499999999999998 -14.433756729740638 25.000000000000004 Q-14.433756729740647 5.329070518200751e-15 0 0Z" fill="#e4d5b7"/><circle cx="23.094010767585033" cy="-5.656401273199504e-15" r="1.6495721976846451" fill="#493118"/></g><g transform="translate(0, 57.735026918962575) rotate(-30)" stroke="brown" stroke-width="0.5"><path transform="rotate(0)" d="M0 0 Q7.216878364870326 12.499999999999998 -14.433756729740638 25.000000000000004 Q-14.433756729740647 5.329070518200751e-15 0 0Z" fill="#e4d5b7"/><circle cx="-11.547005383792511" cy="20.000000000000004" r="1.6495721976846451" fill="#493118"/><path transform="rotate(120)" d="M0 0 Q7.216878364870326 12.499999999999998 -14.433756729740638 25.000000000000004 Q-14.433756729740647 5.329070518200751e-15 0 0Z" fill="#e4d5b7"/><circle cx="-11.547005383792527" cy="-19.999999999999996" r="1.6495721976846451" fill="#493118"/><path transform="rotate(240)" d="M0 0 Q7.216878364870326 12.499999999999998 -14.433756729740638 25.000000000000004 Q-14.433756729740647 5.329070518200751e-15 0 0Z" fill="#e4d5b7"/><circle cx="23.094010767585033" cy="-5.656401273199504e-15" r="1.6495721976846451" fill="#493118"/></g><g transform="translate(-49.999999999999986, 28.867513459481305) rotate(30)" stroke="brown" stroke-width="0.5"><path transform="rotate(0)" d="M0 0 Q7.216878364870326 12.499999999999998 -14.433756729740638 25.000000000000004 Q-14.433756729740647 5.329070518200751e-15 0 0Z" fill="#e4d5b7"/><circle cx="-11.547005383792511" cy="20.000000000000004" r="1.6495721976846451" fill="#493118"/><path transform="rotate(120)" d="M0 0 Q7.216878364870326 12.499999999999998 -14.433756729740638 25.000000000000004 Q-14.433756729740647 5.329070518200751e-15 0 0Z" fill="#e4d5b7"/><circle cx="-11.547005383792527" cy="-19.999999999999996" r="1.6495721976846451" fill="#493118"/><path transform="rotate(240)" d="M0 0 Q7.216878364870326 12.499999999999998 -14.433756729740638 25.000000000000004 Q-14.433756729740647 5.329070518200751e-15 0 0Z" fill="#e4d5b7"/><circle cx="23.094010767585033" cy="-5.656401273199504e-15" r="1.6495721976846451" fill="#493118"/></g><g transform="translate(-49.99999999999999, -28.867513459481295) rotate(-30)" stroke="brown" stroke-width="0.5"><path transform="rotate(0)" d="M0 0 Q7.216878364870326 12.499999999999998 -14.433756729740638 25.000000000000004 Q-14.433756729740647 5.329070518200751e-15 0 0Z" fill="#e4d5b7"/><circle cx="-11.547005383792511" cy="20.000000000000004" r="1.6495721976846451" fill="#493118"/><path transform="rotate(120)" d="M0 0 Q7.216878364870326 12.499999999999998 -14.433756729740638 25.000000000000004 Q-14.433756729740647 5.329070518200751e-15 0 0Z" fill="#e4d5b7"/><circle cx="-11.547005383792527" cy="-19.999999999999996" r="1.6495721976846451" fill="#493118"/><path transform="rotate(240)" d="M0 0 Q7.216878364870326 12.499999999999998 -14.433756729740638 25.000000000000004 Q-14.433756729740647 5.329070518200751e-15 0 0Z" fill="#e4d5b7"/><circle cx="23.094010767585033" cy="-5.656401273199504e-15" r="1.6495721976846451" fill="#493118"/></g></g></svg>